<?xml version="1.0" encoding="utf-8"?>
<!-- Generator: Adobe Illustrator 18.0.0, SVG Export Plug-In . SVG Version: 6.00 Build 0)  -->
<!DOCTYPE svg PUBLIC "-//W3C//DTD SVG 1.1//EN" "http://www.w3.org/Graphics/SVG/1.1/DTD/svg11.dtd">
<svg version="1.1" id="Capa_1" xmlns="http://www.w3.org/2000/svg" xmlns:xlink="http://www.w3.org/1999/xlink" x="0px" y="0px"
	 viewBox="0 800 100 100" style="enable-background:new 0 800 100 100;" xml:space="preserve">
<g>
	<g>
		<path style="fill:#232F3D;" d="M76.9,884.6c0,2.1,0.8,3.9,2.2,5.4c1.5,1.5,3.3,2.2,5.4,2.2c2.1,0,3.9-0.8,5.4-2.2
			c1.5-1.5,2.2-3.3,2.2-5.4c0-2.1-0.8-3.9-2.2-5.4c-1.5-1.5-3.3-2.2-5.4-2.2c-2.1,0-3.9,0.8-5.4,2.2
			C77.7,880.7,76.9,882.5,76.9,884.6z"/>
		<path style="fill:#232F3D;" d="M98.9,816.5c-0.8-0.8-1.7-1.1-2.7-1.1c0,0-3.7,0-3.7,3.8v24.2c0,0.9-0.3,1.8-1,2.5
			c-0.6,0.7-1.4,1.2-2.2,1.2l-56.9,7L24,815.4c0-0.3-0.1-0.8-0.3-1.5c-0.1-0.7-0.2-1.3-0.3-1.8c-0.1-0.4-0.2-1-0.4-1.6
			c-0.2-0.6-0.5-1.1-0.8-1.5c-0.3-0.4-0.7-0.7-1.2-0.9c-0.5-0.2-1.1-0.4-1.7-0.4H3.8c-1,0-1.9,0.4-2.7,1.1c-0.8,0.8-1.1,1.7-1.1,2.7
			s0.4,1.9,1.1,2.7c0.8,0.8,1.7,1.1,2.7,1.1h12.2l10.6,49.5c-0.1,0.2-0.5,0.9-1.2,2.3c-0.7,1.4-1.3,2.5-1.8,3.6
			c-0.4,1-0.6,1.8-0.6,2.4c0,1,0.4,1.9,1.1,2.7c0.8,0.8,1.7,1.1,2.7,1.1h3.8h53.8h3.8c1,0,1.9-0.4,2.7-1.1c0.8-0.8,1.1-1.7,1.1-2.7
			c0-1-0.4-1.9-1.1-2.7c-0.8-0.8-1.7-1.1-2.7-1.1H33.2c1-1.9,1.4-3.2,1.4-3.8c0-0.4,0-0.8-0.1-1.3c-0.1-0.5-0.2-1-0.4-1.6
			c-0.1-0.6-0.2-1-0.3-1.3l62.7-7.3c1-0.1,1.8-0.5,2.5-1.3c0.6-0.7,1-1.6,1-2.5v-30.8C100,818.2,99.6,817.3,98.9,816.5z"/>
		<path style="fill:#232F3D;" d="M23.1,884.6c0,2.1,0.8,3.9,2.2,5.4c1.5,1.5,3.3,2.2,5.4,2.2c2.1,0,3.9-0.8,5.4-2.2
			c1.5-1.5,2.2-3.3,2.2-5.4c0-2.1-0.8-3.9-2.2-5.4c-1.5-1.5-3.3-2.2-5.4-2.2c-2.1,0-3.9,0.8-5.4,2.2
			C23.8,880.7,23.1,882.5,23.1,884.6z"/>
	</g>
</g>
</svg>
