<?xml version="1.0" encoding="utf-8"?>
<!-- Generator: Adobe Illustrator 18.0.0, SVG Export Plug-In . SVG Version: 6.00 Build 0)  -->
<!DOCTYPE svg PUBLIC "-//W3C//DTD SVG 1.1//EN" "http://www.w3.org/Graphics/SVG/1.1/DTD/svg11.dtd">
<svg version="1.1" id="Capa_1" xmlns="http://www.w3.org/2000/svg" xmlns:xlink="http://www.w3.org/1999/xlink" x="0px" y="0px"
	 viewBox="0 0 100 100" enable-background="new 0 0 100 100" xml:space="preserve">
<g>
	<g>
		<path fill="#50ADEB" d="M71.4,91.5c0,2.4,0.8,4.4,2.5,6c1.7,1.7,3.7,2.5,6,2.5c2.4,0,4.4-0.8,6-2.5c1.7-1.7,2.5-3.7,2.5-6
			s-0.8-4.4-2.5-6c-1.7-1.7-3.7-2.5-6-2.5c-2.4,0-4.4,0.8-6,2.5C72.3,87.1,71.4,89.1,71.4,91.5z"/>
		<path fill="#50ADEB" d="M98.5,11.5c-1-1-2.2-1.5-3.5-1.5c0,0-4.8,0-4.8,5v24.5c0,1.2-0.4,2.4-1.3,3.3c-0.8,1-1.9,1.5-2.8,1.6
			l-54,9.1L21.2,10c-0.1-0.4-0.2-1-0.4-2c-0.2-1-0.3-1.7-0.4-2.3s-0.3-1.3-0.6-2.1s-0.6-1.4-1-1.9s-0.9-0.9-1.6-1.2
			C16.6,0.2,15.8,0,15,0H5C3.6,0,2.5,0.5,1.5,1.5S0,3.7,0,5s0.5,2.5,1.5,3.5S3.7,10,5,10h5.9l13.8,57.3c-0.1,0.2-0.6,1.2-1.6,3
			s-1.7,3.3-2.3,4.7c-0.5,1.2-0.8,2.3-0.8,3c0,1.3,0.5,2.5,1.5,3.5S23.7,83,25,83h5h50h5c1.3,0,2.5-0.5,3.5-1.5S90,79.3,90,78
			s-0.5-2.5-1.5-3.5S86.3,73,85,73H33.1c1.3-2.5,1.9-4.2,1.9-5c0-0.5-0.1-1.1-0.2-1.7s-0.3-1.3-0.5-2.1c-0.2-0.8-0.3-1.3-0.4-1.7
			L95.5,53c1.3-0.2,2.4-0.7,3.2-1.7s1.3-2.1,1.3-3.3V15C100,13.7,99.5,12.5,98.5,11.5z"/>
		<path fill="#50ADEB" d="M21.5,91.5c0,2.4,0.8,4.4,2.5,6c1.7,1.7,3.7,2.5,6,2.5c2.4,0,4.4-0.8,6-2.5c1.7-1.7,2.5-3.7,2.5-6
			s-0.8-4.4-2.5-6c-1.7-1.7-3.7-2.5-6-2.5c-2.4,0-4.4,0.8-6,2.5C22.3,87.1,21.5,89.1,21.5,91.5z"/>
	</g>
</g>
</svg>
