<?xml version="1.0" encoding="utf-8"?>
<!-- Generator: Adobe Illustrator 18.0.0, SVG Export Plug-In . SVG Version: 6.00 Build 0)  -->
<!DOCTYPE svg PUBLIC "-//W3C//DTD SVG 1.1//EN" "http://www.w3.org/Graphics/SVG/1.1/DTD/svg11.dtd">
<svg version="1.1" id="Livello_1" xmlns="http://www.w3.org/2000/svg" xmlns:xlink="http://www.w3.org/1999/xlink" x="0px" y="0px"
	 viewBox="0 0 100 100" enable-background="new 0 0 100 100" xml:space="preserve">
<g>
	<g id="search">
		<path fill="#FFFFFF" d="M71.3,62.9h-4.8l-1.3-1.7c5.7-6.1,9.1-14.8,9.1-24C74.3,16.6,57.8,0,37.4,0S0,16.2,0,36.7
			s16.5,37.1,37,37.1c9.1,0,17.8-3.5,23.9-9.2l1.7,1.7v4.8L91.3,100l8.7-8.7L71.3,62.9z M37,62.9c-14.3,0-25.7-11.4-25.7-25.8
			S22.6,11.4,37,11.4s25.7,11.4,25.7,25.8S51.3,62.9,37,62.9z"/>
	</g>
</g>
</svg>
