<?xml version="1.0" encoding="utf-8"?>
<!-- Generator: Adobe Illustrator 18.0.0, SVG Export Plug-In . SVG Version: 6.00 Build 0)  -->
<!DOCTYPE svg PUBLIC "-//W3C//DTD SVG 1.1//EN" "http://www.w3.org/Graphics/SVG/1.1/DTD/svg11.dtd">
<svg version="1.1" id="Livello_1" xmlns="http://www.w3.org/2000/svg" xmlns:xlink="http://www.w3.org/1999/xlink" x="0px" y="0px"
	 viewBox="0 0 100 100" enable-background="new 0 0 100 100" xml:space="preserve">
<path fill="#FFFFFF" d="M50,11.9c7.2,0,13.1,5.9,13.1,13.1S57.3,38.1,50,38.1S36.9,32.2,36.9,25S42.7,11.9,50,11.9 M50,68.1
	c18.6,0,38.1,9.1,38.1,13.1v6.9H11.9v-6.9C11.9,77.2,31.4,68.1,50,68.1 M50,0C36.2,0,25,11.2,25,25s11.2,25,25,25s25-11.2,25-25
	S63.8,0,50,0z M50,56.2c-16.7,0-50,8.4-50,25V100h100V81.2C100,64.6,66.7,56.2,50,56.2z"/>
</svg>
