<?xml version="1.0" encoding="utf-8"?>
<!-- Generator: Adobe Illustrator 18.0.0, SVG Export Plug-In . SVG Version: 6.00 Build 0)  -->
<!DOCTYPE svg PUBLIC "-//W3C//DTD SVG 1.1//EN" "http://www.w3.org/Graphics/SVG/1.1/DTD/svg11.dtd">
<svg version="1.1" id="Livello_1" xmlns="http://www.w3.org/2000/svg" xmlns:xlink="http://www.w3.org/1999/xlink" x="0px" y="0px"
	 viewBox="0 0 23 23" enable-background="new 0 0 23 23" xml:space="preserve">
<g>
	<g id="search">
		<path fill="#232F3D" d="M16.4,14.5h-1.1L15,14.1c1.3-1.4,2.1-3.4,2.1-5.5c0-4.7-3.8-8.5-8.5-8.5S0,3.8,0,8.5s3.8,8.5,8.5,8.5
			c2.1,0,4.1-0.8,5.5-2.1l0.4,0.4v1.1L21,23l2-2L16.4,14.5z M8.5,14.5c-3.3,0-5.9-2.6-5.9-5.9s2.6-5.9,5.9-5.9s5.9,2.6,5.9,5.9
			S11.8,14.5,8.5,14.5z"/>
	</g>
</g>
</svg>
